<svg width="29" height="28" viewBox="0 0 29 28" fill="none" xmlns="http://www.w3.org/2000/svg">
<mask id="mask0_27_857" style="mask-type:alpha" maskUnits="userSpaceOnUse" x="18" y="1" width="10" height="10">
<path d="M26.3441 2.40522C28.1776 4.23882 28.2227 7.16662 26.4447 8.94466C24.6666 10.7227 21.7388 10.6776 19.9052 8.84405C18.0716 7.01045 18.0266 4.08265 19.8046 2.30461C21.5826 0.526575 24.5105 0.571618 26.3441 2.40522Z" fill="black"/>
</mask>
<g mask="url(#mask0_27_857)">
<rect x="16.1904" y="-1.40344" width="14.1654" height="14.1654" fill="#FFDB4B" fill-opacity="0.55"/>
</g>
<mask id="mask1_27_857" style="mask-type:alpha" maskUnits="userSpaceOnUse" x="11" y="11" width="17" height="16">
<path d="M25.036 13.4249C28.2001 16.589 28.2779 21.6414 25.2096 24.7096C22.1414 27.7779 17.089 27.7001 13.9249 24.536C10.7608 21.3719 10.683 16.3195 13.7513 13.2513C16.8195 10.183 21.8719 10.2608 25.036 13.4249Z" fill="black"/>
</mask>
<g mask="url(#mask1_27_857)">
<rect x="2.85736" y="10.7512" width="32" height="32" fill="#70E0F3" fill-opacity="0.56"/>
</g>
<mask id="mask2_27_857" style="mask-type:alpha" maskUnits="userSpaceOnUse" x="1" y="1" width="23" height="22">
<path d="M20.2239 4.21251C24.5072 8.49585 24.5072 15.4405 20.2239 19.7239C15.9405 24.0072 8.99585 24.0072 4.71251 19.7239C0.429163 15.4405 0.429163 8.49585 4.71251 4.21251C8.99585 -0.0708367 15.9405 -0.0708367 20.2239 4.21251Z" fill="black"/>
</mask>
<g mask="url(#mask2_27_857)">
<rect x="-1.5" y="-2" width="32" height="32" fill="#6FF0C2" fill-opacity="0.36"/>
</g>
<path d="M18.4583 22.125H7.20831C6.86331 22.125 6.58331 21.845 6.58331 21.5C6.58331 21.155 6.86331 20.875 7.20831 20.875H18.4583C18.8033 20.875 19.0833 21.155 19.0833 21.5C19.0833 21.845 18.8033 22.125 18.4583 22.125Z" fill="black"/>
<path d="M17.2083 19C16.8633 19 16.5836 18.7206 16.5833 18.3759C16.5808 16.6637 14.8496 15.6769 13.2268 14.8866C13.0111 14.7816 12.7821 14.6747 12.5452 14.5647C10.5583 13.6387 7.83738 12.3706 7.83331 9.62594C7.833 9.28094 8.11238 9.00063 8.45738 9H8.45831C8.803 9 9.083 9.27937 9.08331 9.62406C9.08613 11.5734 11.2046 12.5603 13.0733 13.4316C13.3168 13.545 13.5524 13.655 13.7743 13.7631C15.1918 14.4534 17.8299 15.7381 17.8336 18.3744C17.8339 18.7194 17.5546 18.9997 17.2096 19.0003C17.2089 19 17.2086 19 17.2083 19Z" fill="black"/>
<path d="M8.45831 19C8.458 19 8.45769 19 8.45738 19C8.11238 18.9994 7.83269 18.7194 7.83331 18.3741C7.83738 15.6294 10.5583 14.3613 12.5452 13.4353C12.7821 13.325 13.0111 13.2184 13.2268 13.1134C14.8496 12.3231 16.5808 11.3366 16.5833 9.62406C16.5836 9.27937 16.8636 9 17.2083 9H17.2093C17.5543 9.00063 17.8339 9.28063 17.8333 9.62594C17.8296 12.2622 15.1914 13.5469 13.7739 14.2372C13.5521 14.3453 13.3168 14.455 13.073 14.5687C11.2046 15.4394 9.08613 16.4266 9.08331 18.3759C9.083 18.7206 8.803 19 8.45831 19Z" fill="black"/>
<path d="M17.2083 22.125C16.8633 22.125 16.5833 21.845 16.5833 21.5V18.375C16.5833 18.03 16.8633 17.75 17.2083 17.75C17.5533 17.75 17.8333 18.03 17.8333 18.375V21.5C17.8333 21.845 17.5533 22.125 17.2083 22.125Z" fill="black"/>
<path d="M8.45831 22.125C8.11331 22.125 7.83331 21.845 7.83331 21.5V18.375C7.83331 18.03 8.11331 17.75 8.45831 17.75C8.80331 17.75 9.08331 18.03 9.08331 18.375V21.5C9.08331 21.845 8.80331 22.125 8.45831 22.125Z" fill="black"/>
<path d="M17.2083 10.25C16.8633 10.25 16.5833 9.97 16.5833 9.625V6.5C16.5833 6.155 16.8633 5.875 17.2083 5.875C17.5533 5.875 17.8333 6.155 17.8333 6.5V9.625C17.8333 9.97 17.5533 10.25 17.2083 10.25Z" fill="black"/>
<path d="M8.45831 10.25C8.11331 10.25 7.83331 9.97 7.83331 9.625V6.5C7.83331 6.155 8.11331 5.875 8.45831 5.875C8.80331 5.875 9.08331 6.155 9.08331 6.5V9.625C9.08331 9.97 8.80331 10.25 8.45831 10.25Z" fill="black"/>
<path d="M18.4583 7.125H7.20831C6.86331 7.125 6.58331 6.845 6.58331 6.5C6.58331 6.155 6.86331 5.875 7.20831 5.875H18.4583C18.8033 5.875 19.0833 6.155 19.0833 6.5C19.0833 6.845 18.8033 7.125 18.4583 7.125Z" fill="black"/>
</svg>
