<svg width="25" height="25" viewBox="0 0 25 25" fill="none" xmlns="http://www.w3.org/2000/svg">
<mask id="mask0_27_543" style="mask-type:alpha" maskUnits="userSpaceOnUse" x="15" y="1" width="9" height="9">
<path d="M22.6521 2.56165C24.2237 4.1333 24.2623 6.64285 22.7383 8.16688C21.2143 9.69092 18.7047 9.65231 17.1331 8.08065C15.5614 6.50899 15.5228 3.99944 17.0468 2.47541C18.5709 0.951385 21.0804 0.989993 22.6521 2.56165Z" fill="black"/>
</mask>
<g mask="url(#mask0_27_543)">
<rect x="13.9489" y="-0.702881" width="12.1418" height="12.1418" fill="#FFDB4B" fill-opacity="0.55"/>
</g>
<mask id="mask1_27_543" style="mask-type:alpha" maskUnits="userSpaceOnUse" x="9" y="9" width="15" height="15">
<path d="M21.5309 12.0071C24.243 14.7192 24.3096 19.0498 21.6797 21.6797C19.0498 24.3096 14.7192 24.243 12.0071 21.5309C9.29496 18.8188 9.22834 14.4882 11.8583 11.8583C14.4882 9.22834 18.8188 9.29496 21.5309 12.0071Z" fill="black"/>
</mask>
<g mask="url(#mask1_27_543)">
<rect x="2.52063" y="9.71545" width="27.4286" height="27.4286" fill="#70E0F3" fill-opacity="0.56"/>
</g>
<mask id="mask2_27_543" style="mask-type:alpha" maskUnits="userSpaceOnUse" x="1" y="1" width="20" height="20">
<path d="M17.4062 4.11076C21.0776 7.7822 21.0776 13.7348 17.4062 17.4062C13.7347 21.0777 7.78213 21.0777 4.1107 17.4062C0.439257 13.7348 0.439257 7.7822 4.1107 4.11076C7.78213 0.439318 13.7347 0.439318 17.4062 4.11076Z" fill="black"/>
</mask>
<g mask="url(#mask2_27_543)">
<rect x="-1.21429" y="-1.21423" width="27.4286" height="27.4286" fill="#6FF0C2" fill-opacity="0.36"/>
</g>
<path d="M8.51473 15.0369C8.41098 15.0369 8.30629 15.0109 8.2091 14.9565C7.90817 14.7875 7.80129 14.4065 7.97035 14.1056L8.51598 13.134C9.71035 11.0106 10.6072 8.7331 11.1816 6.36466L11.3507 5.6531C11.4304 5.31748 11.7672 5.11029 12.1032 5.18967C12.4391 5.26935 12.6466 5.60623 12.5666 5.94217L12.3972 6.65623C11.795 9.13873 10.8563 11.5234 9.60567 13.7462L9.06004 14.7175C8.94567 14.9219 8.73348 15.0369 8.51473 15.0369Z" fill="black"/>
<path d="M10.5891 17.1097C10.3703 17.1097 10.1582 16.9947 10.0435 16.7907C9.87441 16.4897 9.98129 16.1085 10.2822 15.9397L11.2538 15.3941C13.4772 14.1438 15.8616 13.2047 18.341 12.6035L19.0582 12.4335C19.3947 12.3528 19.7307 12.5613 19.8107 12.8972C19.8907 13.2332 19.6828 13.57 19.3469 13.6497L18.6325 13.8191C16.2675 14.3925 13.9903 15.2897 11.8663 16.4838L10.8944 17.0297C10.7975 17.0841 10.6925 17.1097 10.5891 17.1097Z" fill="black"/>
<path d="M6.94846 20.6087C6.26658 20.6087 5.60627 20.3406 5.11252 19.8312C4.37002 19.0653 4.18283 17.9293 4.63565 16.9374C5.08846 15.9453 6.07033 15.3434 7.13408 15.4021C7.47877 15.4215 7.74252 15.7162 7.72346 16.0609C7.70408 16.4059 7.41096 16.6665 7.06471 16.6503C6.40408 16.6121 5.96221 17.0424 5.77315 17.4565C5.58408 17.8706 5.54721 18.4834 6.01033 18.9612C6.48065 19.4465 7.10096 19.4209 7.52471 19.2353C7.94846 19.0496 8.38815 18.6106 8.35033 17.9359C8.33096 17.5912 8.59502 17.2962 8.9394 17.2768C9.2844 17.2615 9.57908 17.5212 9.59846 17.8659C9.65877 18.9484 9.0419 19.9353 8.02627 20.3799C7.67502 20.5337 7.30877 20.6087 6.94846 20.6087Z" fill="black"/>
<path d="M9.89627 19.0368C9.47752 19.0368 9.06158 18.8721 8.73096 18.5418C8.4869 18.2978 8.4869 17.9021 8.73096 17.6578C8.97502 17.4137 9.37065 17.4137 9.61502 17.6578C9.87783 17.9206 10.1272 17.7278 10.2219 17.6328C10.3169 17.5378 10.5091 17.289 10.2466 17.0265C10.0025 16.7825 10.0025 16.3868 10.2466 16.1428C10.4903 15.8987 10.8866 15.8987 11.1303 16.1428C11.8 16.8125 11.7894 17.8331 11.1056 18.5168C10.7594 18.8631 10.3263 19.0368 9.89627 19.0368Z" fill="black"/>
<path d="M6.90035 16.4518C6.74035 16.4518 6.58035 16.3909 6.45848 16.2687C6.10442 15.915 5.9291 15.4618 5.9641 14.9934C5.99473 14.5887 6.1791 14.1987 6.48317 13.8943C7.16692 13.2103 8.18785 13.1997 8.85754 13.8697C9.1016 14.1137 9.1016 14.5093 8.85754 14.7534C8.61379 14.9975 8.21754 14.9975 7.97379 14.7534C7.87723 14.6572 7.78067 14.6153 7.67629 14.6218C7.57129 14.6297 7.45848 14.6868 7.36723 14.7781C7.27223 14.8731 7.08004 15.1222 7.34223 15.3847C7.58629 15.6287 7.58629 16.0243 7.34223 16.2684C7.22004 16.3909 7.06004 16.4518 6.90035 16.4518Z" fill="black"/>
<path d="M9.17313 18.7246C9.01312 18.7246 8.85313 18.6637 8.73125 18.5415L6.45844 16.2687C6.21437 16.0246 6.21437 15.629 6.45844 15.385C6.70219 15.1409 7.09844 15.1409 7.34219 15.385L9.615 17.6578C9.85906 17.9018 9.85906 18.2975 9.615 18.5415C9.49281 18.6637 9.33281 18.7246 9.17313 18.7246Z" fill="black"/>
<path d="M10.6884 17.2097C10.5284 17.2097 10.3688 17.1488 10.2466 17.0266L7.97376 14.7538C7.72969 14.5097 7.72969 14.1141 7.97376 13.8701C8.21751 13.626 8.61344 13.626 8.85751 13.8701L11.1303 16.1429C11.3744 16.3869 11.3744 16.7826 11.1303 17.0266C11.0084 17.1485 10.8481 17.2097 10.6884 17.2097Z" fill="black"/>
<path d="M19.9275 14.3913C19.7675 14.3913 19.6075 14.3304 19.4856 14.2082L10.7919 5.51443C10.5478 5.27037 10.5478 4.87474 10.7919 4.63068C11.0356 4.38662 11.4319 4.38662 11.6756 4.63068L20.3694 13.3244C20.6134 13.5685 20.6134 13.9641 20.3694 14.2082C20.2475 14.3304 20.0872 14.3913 19.9275 14.3913Z" fill="black"/>
<path d="M17.9513 7.67402C17.7913 7.67402 17.6316 7.61309 17.5094 7.49121C17.2653 7.24715 17.2653 6.85152 17.5094 6.60715L18.3932 5.72309C18.6372 5.47902 19.0328 5.47902 19.2772 5.72309C19.5213 5.96715 19.5213 6.36277 19.2772 6.60715L18.3935 7.49121C18.2713 7.61277 18.1113 7.67402 17.9513 7.67402Z" fill="black"/>
<path d="M20 9.60254H18.75C18.405 9.60254 18.125 9.32254 18.125 8.97754C18.125 8.63254 18.405 8.35254 18.75 8.35254H20C20.345 8.35254 20.625 8.63254 20.625 8.97754C20.625 9.32254 20.345 9.60254 20 9.60254Z" fill="black"/>
<path d="M16.0225 6.875C15.6775 6.875 15.3975 6.595 15.3975 6.25V5C15.3975 4.655 15.6775 4.375 16.0225 4.375C16.3675 4.375 16.6475 4.655 16.6475 5V6.25C16.6475 6.595 16.3675 6.875 16.0225 6.875Z" fill="black"/>
</svg>
