<svg width="25" height="25" viewBox="0 0 25 25" fill="none" xmlns="http://www.w3.org/2000/svg">
<mask id="mask0_27_1251" style="mask-type:alpha" maskUnits="userSpaceOnUse" x="15" y="1" width="9" height="9">
<path d="M22.6521 2.56165C24.2237 4.1333 24.2623 6.64285 22.7383 8.16688C21.2143 9.69092 18.7047 9.65231 17.1331 8.08065C15.5614 6.50899 15.5228 3.99944 17.0468 2.47541C18.5709 0.951385 21.0804 0.989993 22.6521 2.56165Z" fill="black"/>
</mask>
<g mask="url(#mask0_27_1251)">
<rect x="13.9489" y="-0.702881" width="12.1418" height="12.1418" fill="#FFDB4B" fill-opacity="0.55"/>
</g>
<mask id="mask1_27_1251" style="mask-type:alpha" maskUnits="userSpaceOnUse" x="9" y="9" width="15" height="15">
<path d="M21.5309 12.0071C24.243 14.7192 24.3096 19.0498 21.6797 21.6797C19.0498 24.3096 14.7192 24.243 12.0071 21.5309C9.29496 18.8188 9.22834 14.4882 11.8583 11.8583C14.4882 9.22834 18.8188 9.29496 21.5309 12.0071Z" fill="black"/>
</mask>
<g mask="url(#mask1_27_1251)">
<rect x="2.52063" y="9.71545" width="27.4286" height="27.4286" fill="#70E0F3" fill-opacity="0.56"/>
</g>
<mask id="mask2_27_1251" style="mask-type:alpha" maskUnits="userSpaceOnUse" x="1" y="1" width="20" height="20">
<path d="M17.4062 4.11076C21.0777 7.7822 21.0777 13.7348 17.4062 17.4062C13.7348 21.0777 7.7822 21.0777 4.11076 17.4062C0.439318 13.7348 0.439318 7.7822 4.11076 4.11076C7.7822 0.439318 13.7348 0.439318 17.4062 4.11076Z" fill="black"/>
</mask>
<g mask="url(#mask2_27_1251)">
<rect x="-1.21423" y="-1.21423" width="27.4286" height="27.4286" fill="#6FF0C2" fill-opacity="0.36"/>
</g>
<path d="M10.014 15.625H6.24841C5.90341 15.625 5.62341 15.345 5.62341 15C5.62341 14.655 5.90341 14.375 6.24841 14.375H10.014C10.359 14.375 10.639 14.655 10.639 15C10.639 15.345 10.3594 15.625 10.014 15.625Z" fill="black"/>
<path d="M10.014 13.125H7.49841C7.15341 13.125 6.87341 12.845 6.87341 12.5C6.87341 12.155 7.15341 11.875 7.49841 11.875H10.014C10.359 11.875 10.639 12.155 10.639 12.5C10.639 12.845 10.3594 13.125 10.014 13.125Z" fill="black"/>
<path d="M19.3734 18.125H4.99841C4.65341 18.125 4.37341 17.845 4.37341 17.5C4.37341 17.155 4.65341 16.875 4.99841 16.875H19.3734C19.7184 16.875 19.9984 17.155 19.9984 17.5C19.9984 17.845 19.7187 18.125 19.3734 18.125Z" fill="black"/>
<path d="M7.49841 11.25C7.15341 11.25 6.87341 10.97 6.87341 10.625V8.125C6.87341 7.78 7.15341 7.5 7.49841 7.5C7.84341 7.5 8.12341 7.78 8.12341 8.125V10.625C8.12341 10.97 7.84373 11.25 7.49841 11.25Z" fill="black"/>
<path d="M13.7484 13.2578C13.2703 13.2578 12.7918 13.1003 12.3931 12.7853C12.1221 12.5715 12.0759 12.1784 12.2896 11.9075C12.5034 11.6368 12.8965 11.5903 13.1674 11.804C13.5093 12.0737 13.9874 12.0737 14.3293 11.804C14.6009 11.5903 14.9937 11.6365 15.2071 11.9075C15.4212 12.1784 15.3746 12.5715 15.1037 12.7853C14.7049 13.1003 14.2265 13.2578 13.7484 13.2578Z" fill="black"/>
<path d="M14.7172 12.92C14.5325 12.92 14.3497 12.8384 14.2263 12.6822C14.0122 12.4112 14.0584 12.0181 14.3297 11.8044L19.6113 7.63436C19.8822 7.42061 20.2753 7.46686 20.4891 7.73779C20.7031 8.00873 20.6569 8.40186 20.3856 8.61561L15.1041 12.7856C14.9894 12.8759 14.8525 12.92 14.7172 12.92Z" fill="black"/>
<path d="M12.78 12.92C12.6443 12.92 12.5078 12.8759 12.3931 12.7856L7.11121 8.61562C6.84027 8.40156 6.79402 8.00875 7.00777 7.73781C7.22183 7.46718 7.61464 7.42093 7.88558 7.63437L13.1675 11.8044C13.4384 12.0184 13.4846 12.4112 13.2709 12.6822C13.1475 12.8384 12.9646 12.92 12.78 12.92Z" fill="black"/>
<path d="M7.4981 8.75C7.1531 8.75 6.87341 8.47 6.87341 8.125C6.87341 7.43562 7.43404 6.875 8.12341 6.875C8.46841 6.875 8.74841 7.155 8.74841 7.5C8.74841 7.845 8.46841 8.125 8.12341 8.125H8.12279C8.12279 8.47 7.84341 8.75 7.4981 8.75Z" fill="black"/>
<path d="M19.3734 8.125H8.12341C7.77841 8.125 7.49841 7.845 7.49841 7.5C7.49841 7.155 7.77841 6.875 8.12341 6.875H19.3734C19.7184 6.875 19.9984 7.155 19.9984 7.5C19.9984 7.845 19.7187 8.125 19.3734 8.125Z" fill="black"/>
<path d="M19.9984 17.5C19.6534 17.5 19.3734 17.22 19.3734 16.875V8.125C19.3734 7.78 19.6534 7.5 19.9984 7.5C20.3434 7.5 20.6234 7.78 20.6234 8.125V16.875C20.6234 17.22 20.3437 17.5 19.9984 17.5Z" fill="black"/>
<path d="M19.9984 8.75C19.6534 8.75 19.3734 8.47 19.3734 8.125V8.12437C19.0284 8.12437 18.7484 7.845 18.7484 7.49969C18.7484 7.15469 19.0284 6.875 19.3734 6.875C20.0628 6.875 20.6234 7.43562 20.6234 8.125C20.6234 8.47 20.3437 8.75 19.9984 8.75Z" fill="black"/>
<path d="M19.3734 18.125C19.0284 18.125 18.7484 17.845 18.7484 17.5C18.7484 17.155 19.0284 16.875 19.3734 16.875H19.374C19.374 16.53 19.6534 16.25 19.9987 16.25C20.3437 16.25 20.6234 16.53 20.6234 16.875C20.6234 17.5644 20.0628 18.125 19.3734 18.125Z" fill="black"/>
</svg>
