<svg width="25" height="25" viewBox="0 0 25 25" fill="none" xmlns="http://www.w3.org/2000/svg">
<mask id="mask0_27_1359" style="mask-type:alpha" maskUnits="userSpaceOnUse" x="15" y="1" width="9" height="9">
<path d="M22.6521 2.56165C24.2237 4.1333 24.2623 6.64285 22.7383 8.16688C21.2143 9.69092 18.7047 9.65231 17.1331 8.08065C15.5614 6.50899 15.5228 3.99944 17.0468 2.47541C18.5709 0.951385 21.0804 0.989993 22.6521 2.56165Z" fill="black"/>
</mask>
<g mask="url(#mask0_27_1359)">
<rect x="13.9489" y="-0.702881" width="12.1418" height="12.1418" fill="#FFDB4B" fill-opacity="0.55"/>
</g>
<mask id="mask1_27_1359" style="mask-type:alpha" maskUnits="userSpaceOnUse" x="9" y="9" width="15" height="15">
<path d="M21.5309 12.0071C24.243 14.7192 24.3096 19.0498 21.6797 21.6797C19.0498 24.3096 14.7192 24.243 12.0071 21.5309C9.29496 18.8188 9.22834 14.4882 11.8583 11.8583C14.4882 9.22834 18.8188 9.29496 21.5309 12.0071Z" fill="black"/>
</mask>
<g mask="url(#mask1_27_1359)">
<rect x="2.52063" y="9.71545" width="27.4286" height="27.4286" fill="#70E0F3" fill-opacity="0.56"/>
</g>
<mask id="mask2_27_1359" style="mask-type:alpha" maskUnits="userSpaceOnUse" x="1" y="1" width="20" height="20">
<path d="M17.4062 4.11076C21.0776 7.7822 21.0776 13.7348 17.4062 17.4062C13.7347 21.0777 7.78213 21.0777 4.1107 17.4062C0.439257 13.7348 0.439257 7.7822 4.1107 4.11076C7.78213 0.439318 13.7347 0.439318 17.4062 4.11076Z" fill="black"/>
</mask>
<g mask="url(#mask2_27_1359)">
<rect x="-1.21429" y="-1.21423" width="27.4286" height="27.4286" fill="#6FF0C2" fill-opacity="0.36"/>
</g>
<path d="M12.5 20.6249C12.4212 20.6249 12.3425 20.6099 12.2678 20.5803L4.76781 17.5803C4.44718 17.4521 4.29156 17.0884 4.41968 16.7678C4.54812 16.4471 4.91218 16.2915 5.23218 16.4196L12.5 19.3268L19.7678 16.4196C20.0887 16.2909 20.4519 16.4471 20.5803 16.7678C20.7084 17.0881 20.5528 17.4518 20.2322 17.5803L12.7322 20.5803C12.6575 20.6099 12.5787 20.6249 12.5 20.6249Z" fill="black"/>
<path d="M5 17.625C4.655 17.625 4.375 17.345 4.375 17V8C4.375 7.655 4.655 7.375 5 7.375C5.345 7.375 5.625 7.655 5.625 8V17C5.625 17.3453 5.345 17.625 5 17.625Z" fill="black"/>
<path d="M12.5 20.6251C12.155 20.6251 11.875 20.3451 11.875 20.0001V11.0004C11.875 10.6554 12.155 10.3754 12.5 10.3754C12.845 10.3754 13.125 10.6554 13.125 11.0004V20.0001C13.125 20.3451 12.845 20.6251 12.5 20.6251Z" fill="black"/>
<path d="M20 17.625C19.655 17.625 19.375 17.345 19.375 17V8C19.375 7.655 19.655 7.375 20 7.375C20.345 7.375 20.625 7.655 20.625 8V17C20.625 17.3453 20.345 17.625 20 17.625Z" fill="black"/>
<path d="M12.5 11.6253C12.4213 11.6253 12.3425 11.6103 12.2678 11.5806L4.76781 8.58028C4.53062 8.48559 4.375 8.25559 4.375 8.00028C4.375 7.74497 4.53062 7.51497 4.76781 7.41997L12.2678 4.41965C12.4169 4.36028 12.5831 4.36028 12.7319 4.41965L20.2319 7.41997C20.4694 7.51465 20.625 7.74465 20.625 8.00028C20.625 8.2559 20.4694 8.48559 20.2322 8.58059L12.7322 11.5809C12.6575 11.6103 12.5787 11.6253 12.5 11.6253ZM6.68281 8.00028L12.5 10.3272L18.3172 8.00028L12.5 5.67309L6.68281 8.00028Z" fill="black"/>
</svg>
