<svg width="30" height="28" viewBox="0 0 30 28" fill="none" xmlns="http://www.w3.org/2000/svg">
<mask id="mask0_34_453" style="mask-type:alpha" maskUnits="userSpaceOnUse" x="15" y="2" width="9" height="9">
<path d="M22.1521 4.06165C23.7237 5.6333 23.7623 8.14285 22.2383 9.66688C20.7143 11.1909 18.2047 11.1523 16.6331 9.58065C15.0614 8.00899 15.0228 5.49944 16.5468 3.97541C18.0709 2.45138 20.5804 2.48999 22.1521 4.06165Z" fill="black"/>
</mask>
<g mask="url(#mask0_34_453)">
<rect x="13.4489" y="0.797119" width="12.1418" height="12.1418" fill="#6FF0C2" fill-opacity="0.36"/>
</g>
<mask id="mask1_34_453" style="mask-type:alpha" maskUnits="userSpaceOnUse" x="9" y="11" width="15" height="15">
<path d="M21.0309 13.5071C23.743 16.2192 23.8096 20.5498 21.1797 23.1797C18.5498 25.8096 14.2192 25.743 11.5071 23.0309C8.79496 20.3188 8.72834 15.9882 11.3583 13.3583C13.9882 10.7283 18.3188 10.795 21.0309 13.5071Z" fill="black"/>
</mask>
<g mask="url(#mask1_34_453)">
<rect x="2.0206" y="11.2155" width="27.4286" height="27.4286" fill="#FFDB4B" fill-opacity="0.55"/>
</g>
<mask id="mask2_34_453" style="mask-type:alpha" maskUnits="userSpaceOnUse" x="0" y="2" width="20" height="20">
<path d="M16.9062 5.61076C20.5776 9.2822 20.5776 15.2348 16.9062 18.9062C13.2347 22.5777 7.28217 22.5777 3.61073 18.9062C-0.0607127 15.2348 -0.0607127 9.2822 3.61073 5.61076C7.28217 1.93932 13.2347 1.93932 16.9062 5.61076Z" fill="black"/>
</mask>
<g mask="url(#mask2_34_453)">
<rect x="-1.71429" y="0.285767" width="27.4286" height="27.4286" fill="#70E0F3" fill-opacity="0.56"/>
</g>
<path d="M26.9375 21.6562C27.1791 21.6562 27.375 21.4604 27.375 21.2188C27.375 20.9771 27.1791 20.7812 26.9375 20.7812C26.6959 20.7812 26.5 20.9771 26.5 21.2188C26.5 21.4604 26.6959 21.6562 26.9375 21.6562Z" fill="black"/>
<path d="M23 4.375C23.2416 4.375 23.4375 4.17912 23.4375 3.9375C23.4375 3.69588 23.2416 3.5 23 3.5C22.7584 3.5 22.5625 3.69588 22.5625 3.9375C22.5625 4.17912 22.7584 4.375 23 4.375Z" fill="black"/>
<path d="M4.1875 9.1875C3.92791 9.1875 3.67415 9.26448 3.45831 9.4087C3.24248 9.55292 3.07425 9.7579 2.97491 9.99773C2.87557 10.2376 2.84958 10.5015 2.90022 10.7561C2.95086 11.0107 3.07587 11.2445 3.25942 11.4281C3.44298 11.6116 3.67684 11.7366 3.93144 11.7873C4.18604 11.8379 4.44994 11.8119 4.68977 11.7126C4.9296 11.6133 5.13458 11.445 5.2788 11.2292C5.42302 11.0133 5.5 10.7596 5.5 10.5C5.49962 10.152 5.36121 9.8184 5.11516 9.57234C4.8691 9.32629 4.53548 9.18788 4.1875 9.1875ZM4.1875 10.9375C4.10097 10.9375 4.01639 10.9118 3.94444 10.8638C3.87249 10.8157 3.81642 10.7474 3.7833 10.6674C3.75019 10.5875 3.74153 10.4995 3.75841 10.4146C3.77529 10.3298 3.81696 10.2518 3.87814 10.1906C3.93933 10.1295 4.01728 10.0878 4.10215 10.0709C4.18702 10.054 4.27498 10.0627 4.35492 10.0958C4.43487 10.1289 4.5032 10.185 4.55127 10.2569C4.59934 10.3289 4.625 10.4135 4.625 10.5C4.62493 10.616 4.57881 10.7273 4.49678 10.8093C4.41475 10.8913 4.30351 10.9374 4.1875 10.9375Z" fill="black"/>
<path d="M7.25 4.375C7.49162 4.375 7.6875 4.17912 7.6875 3.9375C7.6875 3.69588 7.49162 3.5 7.25 3.5C7.00838 3.5 6.8125 3.69588 6.8125 3.9375C6.8125 4.17912 7.00838 4.375 7.25 4.375Z" fill="black"/>
<path d="M19.0625 26.6875C19.3041 26.6875 19.5 26.4916 19.5 26.25C19.5 26.0084 19.3041 25.8125 19.0625 25.8125C18.8209 25.8125 18.625 26.0084 18.625 26.25C18.625 26.4916 18.8209 26.6875 19.0625 26.6875Z" fill="black"/>
<path d="M26.6307 15.4318L25.9023 12.7597L26.6137 12.0484C27.3331 11.3309 27.8989 10.4746 28.2768 9.53146C28.6547 8.58836 28.8367 7.57822 28.8118 6.56253C28.8085 6.45095 28.7627 6.34485 28.6838 6.26592C28.6048 6.18698 28.4987 6.14117 28.3872 6.13785C27.3717 6.11514 26.3622 6.29819 25.4194 6.67596C24.4766 7.05374 23.6201 7.61843 22.9013 8.33603L22.7686 8.46877C21.6279 7.06939 20.082 6.05748 18.3431 5.57201C16.6043 5.08654 14.7577 5.15131 13.0572 5.75745C11.3566 6.36358 9.88536 7.48134 8.84557 8.95721C7.80577 10.4331 7.2484 12.1947 7.24999 14C7.25115 15.2608 7.52683 16.5063 8.05788 17.6497C8.03635 17.6691 8.01689 17.6907 7.99983 17.7141C6.94322 19.4991 5.91698 21.8596 7.02858 22.9714C7.20443 23.1348 7.41149 23.2611 7.63733 23.3426C7.86317 23.4241 8.10315 23.4592 8.34287 23.4457C9.39921 23.4457 10.812 22.8757 12.3609 21.9474C13.4786 22.4633 14.6927 22.7367 15.9236 22.7496C17.1545 22.7626 18.3742 22.5148 19.5024 22.0226C20.6307 21.5304 21.642 20.805 22.4697 19.8939C23.2975 18.9829 23.9231 17.9069 24.3052 16.7368L24.662 17.0936C24.744 17.1757 24.8553 17.2218 24.9713 17.2218C25.0873 17.2218 25.1986 17.1757 25.2806 17.0936L26.5179 15.8559C26.5725 15.8015 26.6117 15.7335 26.6315 15.659C26.6513 15.5845 26.651 15.5061 26.6307 15.4318ZM27.935 7.01456C27.8658 8.67771 27.1733 10.2539 25.995 11.4297L25.1044 12.3205L22.8062 14.6187L22.4969 14.928L20.0218 12.4534L23.5201 8.9547C24.6957 7.77626 26.2719 7.0836 27.935 7.01456ZM21.2581 14.9271C20.6242 15.5323 19.8095 15.9132 18.9386 16.0115C19.0367 15.1405 19.4174 14.3256 20.0225 13.6916L21.2581 14.9271ZM20.0217 11.2157L18.7839 9.97836L19.5329 9.22984L21.4775 9.76005L20.0217 11.2157ZM16 6.12503C17.1657 6.12832 18.3162 6.38958 19.369 6.89008C20.4218 7.39059 21.3507 8.11792 22.0892 9.01988L19.5179 8.31892C19.4435 8.29878 19.3651 8.2986 19.2906 8.31841C19.2161 8.33822 19.1481 8.37731 19.0936 8.43175L17.8558 9.66905C17.8152 9.70966 17.783 9.75787 17.761 9.81095C17.739 9.86402 17.7276 9.92091 17.7276 9.97836C17.7276 10.0358 17.739 10.0927 17.761 10.1458C17.783 10.1988 17.8152 10.2471 17.8558 10.2877L19.4032 11.8344L19.0937 12.1439C19.0117 12.2259 18.9656 12.3372 18.9656 12.4532C18.9656 12.5693 19.0117 12.6805 19.0937 12.7626L19.4067 13.0755C18.5744 13.9403 18.0903 15.0816 18.047 16.2811C16.3088 18.0392 14.3871 19.6061 12.3151 20.9548C10.7612 20.1325 9.52726 18.8138 8.80997 17.2087C8.09267 15.6037 7.9333 13.8048 8.35725 12.0986C8.78119 10.3925 9.76406 8.87736 11.1492 7.79474C12.5343 6.71213 14.242 6.12433 16 6.12503ZM11.4126 21.4927C9.21918 22.7107 8.02971 22.7352 7.64733 22.3527C7.2517 21.9567 7.29589 20.75 8.53445 18.5404C9.26315 19.7339 10.2657 20.7365 11.4591 21.4653C11.4439 21.4738 11.4279 21.4842 11.4126 21.4927ZM16 21.875C15.0658 21.8731 14.1396 21.7039 13.2651 21.3752C15.2009 20.0577 17.0081 18.5605 18.6626 16.9035C19.8643 16.8615 21.0082 16.3769 21.8744 15.5428L22.1874 15.8558C22.228 15.8964 22.2762 15.9287 22.3293 15.9506C22.3824 15.9726 22.4392 15.984 22.4967 15.984C22.5541 15.984 22.611 15.9726 22.6641 15.9506C22.7172 15.9287 22.7654 15.8964 22.806 15.8558L23.1153 15.5465L23.5966 16.0277C23.1571 17.7063 22.1726 19.1913 20.7976 20.2497C19.4226 21.308 17.7351 21.8797 16 21.875ZM24.9713 16.1657L23.734 14.9279L25.1896 13.4723L25.7198 15.4167L24.9713 16.1657Z" fill="black"/>
<path d="M25.2806 10.9816C25.5402 10.9816 25.7939 10.9046 26.0097 10.7604C26.2256 10.6163 26.3938 10.4113 26.4932 10.1716C26.5925 9.93178 26.6186 9.66792 26.568 9.41334C26.5174 9.15877 26.3925 8.9249 26.209 8.7413C25.959 8.50265 25.6266 8.36947 25.2809 8.36938C24.9353 8.3693 24.6028 8.50234 24.3526 8.74087C24.1691 8.92442 24.0442 9.15871 23.9935 9.41328C23.9429 9.66786 23.9689 9.93173 24.0682 10.1715C24.1675 10.4113 24.3357 10.6163 24.5515 10.7605C24.7673 10.9048 25.0211 10.9815 25.2806 10.9816ZM24.9713 9.36015C25.0119 9.31936 25.0601 9.28658 25.1132 9.26446C25.1663 9.24234 25.2233 9.23092 25.2808 9.23086C25.3384 9.23079 25.3954 9.24208 25.4485 9.26408C25.5017 9.28607 25.55 9.31835 25.5907 9.35904C25.6313 9.39974 25.6636 9.44807 25.6855 9.50124C25.7075 9.55442 25.7187 9.61141 25.7186 9.66895C25.7185 9.72648 25.7071 9.78343 25.6849 9.83653C25.6627 9.88963 25.6303 9.93783 25.5895 9.97838C25.5063 10.058 25.3956 10.1024 25.2804 10.1024C25.1653 10.1024 25.0545 10.058 24.9713 9.97838C24.9307 9.93781 24.8984 9.88963 24.8764 9.83658C24.8545 9.78354 24.8431 9.72668 24.8431 9.66926C24.8431 9.61184 24.8545 9.55498 24.8764 9.50194C24.8984 9.4489 24.9307 9.40072 24.9713 9.36015Z" fill="black"/>
</svg>
